<svg xmlns="http://www.w3.org/2000/svg" xmlns:xlink="http://www.w3.org/1999/xlink" width="35.00066375732422" height="34.9971923828125" viewBox="0 0 35.00066375732422 34.9971923828125" fill="none"><path   fill-rule="evenodd"  fill="#2A82E4"  d="M7.8 5.34L2.37 0L0 2.33L5.43 7.67L5.43 26.76C5.43 27.6697 6.1853 28.41 7.11 28.41L27.2 28.41L27.2 25.11L8.78 25.11L8.78 21.82L29.31 21.82C30.0499 21.82 30.6975 21.3372 30.91 20.64L34.93 7.46C35.0819 6.96113 34.986 6.42791 34.67 6.01C34.354 5.59238 33.8592 5.34 33.33 5.34L7.8 5.34ZM8.7805 18.5284L28.0605 18.5284L31.0705 8.6384L8.7805 8.6384L8.7805 18.5284ZM7.9411 34.9972C9.32847 34.9972 10.4511 33.8921 10.4511 32.5272C10.4511 31.1623 9.32847 30.0572 7.9411 30.0572C6.55373 30.0572 5.4311 31.1623 5.4311 32.5272C5.4311 33.8921 6.55373 34.9972 7.9411 34.9972ZM30.5476 32.5272C30.5476 31.1623 29.425 30.0572 28.0376 30.0572C26.6502 30.0572 25.5276 31.1623 25.5276 32.5272C25.5276 33.8921 26.6502 34.9972 28.0376 34.9972C29.425 34.9972 30.5476 33.8921 30.5476 32.5272Z"></path></svg>