<svg xmlns="http://www.w3.org/2000/svg" xmlns:xlink="http://www.w3.org/1999/xlink" width="65.0030517578125" height="64" viewBox="0 0 65.0030517578125 64" fill="none"><g opacity="0.1"><path d="M60.9675 39.8661C60.9675 51.0941 51.8753 60.1963 40.6595 60.1963C29.4437 60.1963 20.3516 51.0941 20.3516 39.8661C20.3516 28.638 29.4437 19.5359 40.6595 19.5359C51.8753 19.5359 60.9675 28.638 60.9675 39.8661Z"   fill="#4837FF" ></path></g><path d="M4.87682 26.8373C4.87682 28.1855 3.78511 29.2784 2.43841 29.2784C1.09171 29.2784 0 28.1855 0 26.8373C0 25.4891 1.09171 24.3962 2.43841 24.3962C3.78511 24.3962 4.87682 25.4891 4.87682 26.8373Z"   fill="#4837FF" ></path><path d="M25.6942 2.44108C25.6942 3.78925 24.6025 4.88216 23.2558 4.88216C21.9091 4.88216 20.8174 3.78925 20.8174 2.44108C20.8174 1.09291 21.9091 0 23.2558 0C24.6025 0 25.6942 1.09291 25.6942 2.44108Z"   fill="#FF4C87" ></path><path d="M64.9999 16.0091C64.9999 17.3573 63.9082 18.4502 62.5615 18.4502C61.2148 18.4502 60.123 17.3573 60.123 16.0091C60.123 14.6609 61.2148 13.568 62.5615 13.568C63.9082 13.568 64.9999 14.6609 64.9999 16.0091Z"   fill="#4837FF" ></path><path d="M35.4406 21.0297C35.8991 21.0297 36.3431 21.2119 36.6707 21.5398C36.9982 21.8677 37.1802 22.3122 37.1802 22.7713L37.1802 49.4774C37.1802 50.4392 36.4014 51.2189 35.4406 51.2189C34.4798 51.2189 33.7009 50.4392 33.7009 49.4774L33.7009 22.7713C33.7009 22.3122 33.8829 21.8677 34.2104 21.5398C34.5307 21.2119 34.9747 21.0297 35.4406 21.0297Z"   fill="#FF4C87" ></path><path d="M21.5163 31.479C22.4771 31.479 23.2559 32.2587 23.2559 33.2205L23.2559 39.0281C23.2559 39.99 22.4771 40.7696 21.5163 40.7696C20.5554 40.7696 19.7766 39.99 19.7766 39.0281L19.7766 33.2205C19.7766 32.7615 19.9586 32.317 20.2861 31.989C20.6137 31.6611 21.0577 31.479 21.5163 31.479Z"   fill="#FF4C87" ></path><path d="M49.3579 31.479C49.8165 31.479 50.2605 31.6611 50.5881 31.989C50.9156 32.317 51.0976 32.7615 51.0976 33.2205L51.0976 39.0281C51.0976 39.99 50.3187 40.7696 49.3579 40.7696C48.3971 40.7696 47.6183 39.99 47.6183 39.0281L47.6183 33.2205C47.6183 32.2587 48.3971 31.479 49.3579 31.479Z"   fill="#FF4C87" ></path><path d="M28.4747 26.8373C28.9333 26.8373 29.3773 27.0195 29.7049 27.3474C30.0324 27.6753 30.2144 28.1198 30.2144 28.5788L30.2144 43.6771C30.2144 44.6389 29.4356 45.4186 28.4747 45.4186C27.5139 45.4186 26.7351 44.6389 26.7351 43.6771L26.7351 28.5788C26.7351 28.1198 26.9171 27.6753 27.2446 27.3474C27.5722 27.0195 28.0162 26.8373 28.4747 26.8373Z"   fill="#FF4C87" ></path><path d="M42.3993 26.8373C42.8579 26.8373 43.3019 27.0195 43.6294 27.3474C43.957 27.6753 44.139 28.1198 44.139 28.5788L44.139 43.6771C44.139 44.6389 43.3601 45.4186 42.3993 45.4186C41.4385 45.4186 40.6597 44.6389 40.6597 43.6771L40.6597 28.5788C40.6597 28.1198 40.8416 27.6753 41.1692 27.3474C41.4967 27.0195 41.9335 26.8373 42.3993 26.8373Z"   fill="#FF4C87" ></path><path d="M7.59912 36.126C7.59912 20.7289 20.0589 8.25595 35.4391 8.25595C50.8193 8.25595 63.2791 20.7289 63.2791 36.126C63.2791 40.9571 62.0266 45.7088 59.6391 49.906C59.1515 50.7658 59.4682 52.8694 60.5891 56.236C61.0477 57.6204 60.7136 59.1494 59.7091 60.206C58.7119 61.2625 57.2039 61.6822 55.7991 61.296C52.0869 60.2685 49.7182 60.0457 48.6991 60.636C44.6303 62.8439 40.0685 63.996 35.4391 63.996C20.0589 63.996 7.59912 51.523 7.59912 36.126ZM57.2813 57.3391C57.3396 57.4994 57.3051 57.6852 57.1813 57.8091C57.0649 57.9329 56.8815 57.9828 56.7213 57.9391C52.0774 56.6566 49.1059 56.383 46.9513 57.6291C43.5012 59.5018 39.5439 60.5191 35.4313 60.5191C21.98 60.5191 11.0713 49.6024 11.0713 36.1291C11.0713 22.663 21.9728 11.7391 35.4313 11.7391C48.8826 11.7391 59.7913 22.6558 59.7913 36.1291C59.7913 40.3554 58.7076 44.5065 56.6113 48.1791C55.4176 50.2777 55.8183 52.9597 57.2813 57.3391Z" fill-rule="evenodd"  fill="#4837FF" ></path></svg>