<svg xmlns="http://www.w3.org/2000/svg" xmlns:xlink="http://www.w3.org/1999/xlink" width="455" height="312.94317626953125" viewBox="0 0 455 312.94317626953125" fill="none"><g filter="url(#filter_0_145)"><path d="M40 40L415 40L415 209.5C415 209.5 375.5 304.5 343.5 262C311.5 219.5 283.5 245.5 261 224.5C238.5 203.5 205 251 196.5 266C188 281 112.024 219 100.6 232C90.547 241.5 94.5 266 90.54 260C86.58 254 82.0948 190.08 67.81 182.5C44.4656 176.5 40 190.08 40 190.08L40 40Z"   fill="#8BDBF1" ></path></g><g mask="url(#mask-0_145)"><g filter="url(#filter_1_1)"><ellipse cx="356" cy="32" rx="89" ry="81"   fill="#2695FF" ></ellipse></g></g><g mask="url(#mask-0_145)"><g filter="url(#filter_0_158)"><ellipse cx="83.5" cy="70.5" rx="70.5" ry="66.5"   fill="#58FFEB" ></ellipse></g></g><defs><filter id="filter_0_145" x="0" y="0" width="455" height="312.94317626953125" filterUnits="userSpaceOnUse" color-interpolation-filters="sRGB"><feGaussianBlur result="gaussian_blur_0_145" stdDeviation="20"/></filter><mask id="mask-0_145" style="mask-type:alpha" maskUnits="userSpaceOnUse"><path d="M40 40L415 40L415 209.5C415 209.5 375.5 304.5 343.5 262C311.5 219.5 283.5 245.5 261 224.5C238.5 203.5 205 251 196.5 266C188 281 112.024 219 100.6 232C90.547 241.5 94.5 266 90.54 260C86.58 254 82.0948 190.08 67.81 182.5C44.4656 176.5 40 190.08 40 190.08L40 40Z"   fill="#8BDBF1" ></path></mask><filter id="filter_1_1" x="117" y="-199" width="478" height="462" filterUnits="userSpaceOnUse" color-interpolation-filters="sRGB"><feGaussianBlur result="gaussian_blur_1_1" stdDeviation="75"/></filter><filter id="filter_0_158" x="-87" y="-96" width="341" height="333" filterUnits="userSpaceOnUse" color-interpolation-filters="sRGB"><feGaussianBlur result="gaussian_blur_0_158" stdDeviation="50"/></filter></defs></svg>