<svg xmlns="http://www.w3.org/2000/svg" xmlns:xlink="http://www.w3.org/1999/xlink" width="250" height="167" viewBox="0 0 250 167" fill="none"><path     fill="#E8E9ED"  d="M0 143L0 24C0 10.7452 10.7452 0 24 0L226 0C239.255 0 250 10.7452 250 24L250 143C250 156.255 239.255 167 226 167L24 167C10.7452 167 0 156.255 0 143Z"></path><path  transform="translate(42.0799560546875, 34.279998779296875)"   fill="#FFFFFF"  d="M0 93.4499L0 12C0 5.37258 5.37258 0 12 0L154.846 0C161.473 0 166.846 5.37258 166.846 12L166.846 93.4499C166.846 100.077 161.473 105.45 154.846 105.45L12 105.45C5.37258 105.45 0 100.077 0 93.4499Z"></path><g  clip-path="url(#clip-path-0_879)"><path d="M103.46 89.352L58.58 89.352L58.58 82.432L103.46 82.432L103.46 89.352ZM89.65 103.19L58.58 103.19L58.58 96.2699L89.65 96.2699L89.65 103.19Z" fill-rule="evenodd"  fill="#C1C3C7" ></path><path d="M58.58 68.2158L68.5799 68.2158L68.5799 58.2158L58.58 58.2158L58.58 68.2158ZM74.5799 68.2158L84.5799 68.2158L84.5799 58.2158L74.5799 58.2158L74.5799 68.2158ZM100.58 68.2158L90.58 68.2158L90.58 58.2158L100.58 58.2158L100.58 68.2158Z" fill-rule="evenodd"  fill="#B7BDC9" ></path><path     fill="#CDCFD1"  d="M153.436 54.7564L125.399 54.7564C124.246 54.7564 123.31 55.6929 123.31 56.847L123.31 104.036C123.31 105.18 124.231 106.112 125.373 106.127L164.348 106.622C165.511 106.637 166.462 105.696 166.462 104.531L166.462 67.727L158.176 67.727C156.92 67.727 155.714 67.2293 154.826 66.3446C153.937 65.46 153.436 64.2594 153.436 63.0081L153.436 54.7564"></path><path d="M138.744 76.5485L130.624 91.6788C130.291 92.2931 130.744 93.0499 131.458 93.0499L160.035 93.0499C160.797 93.0499 161.249 92.1986 160.82 91.5605L154.629 82.7662C154.248 82.2458 153.462 82.2226 153.081 82.7662L149.723 87.3996C149.543 87.6447 149.255 87.7896 148.949 87.7896C148.643 87.7896 148.356 87.6447 148.175 87.3996L140.364 76.4303C139.959 75.8629 139.078 75.9336 138.744 76.5485Z"   fill="#FFFFFF" ></path><path d="M153.868 77.1873C155.159 77.1873 156.322 76.4154 156.816 75.2315C157.31 74.0476 157.037 72.6849 156.124 71.7788C155.212 70.8727 153.839 70.6016 152.646 71.092C151.454 71.5824 150.676 72.7376 150.676 74.0191C150.653 75.7686 152.105 77.1873 153.868 77.1873Z"   fill="#FFFFFF" ></path><path d="M153.41 54.7564L166.462 67.7291L158.157 67.7291C156.898 67.7296 155.691 67.2328 154.8 66.3481C153.91 65.4634 153.41 64.2632 153.41 63.0117L153.41 54.7564Z"   fill="#9FA3B3" ></path></g><path d="M22.4005 20L30.4009 20L30.4009 22.4L22.4005 22.4L22.4005 29.6L20.0005 29.6L20.0005 20L22.4005 20Z" fill-rule="evenodd"  fill="#9FA3B3" ></path><path d="M22.4005 148L30.4009 148L30.4009 145.6L22.4005 145.6L22.4005 138.4L20.0005 138.4L20.0005 148L22.4005 148Z" fill-rule="evenodd"  fill="#9FA3B3" ></path><path d="M225.601 148L217.601 148L217.601 145.6L225.601 145.6L225.601 138.4L228.001 138.4L228.001 148L225.601 148Z" fill-rule="evenodd"  fill="#9FA3B3" ></path><path d="M225.601 20L217.601 20L217.601 22.4L225.601 22.4L225.601 29.6L228.001 29.6L228.001 20L225.601 20Z" fill-rule="evenodd"  fill="#9FA3B3" ></path><defs><clipPath id="clip-path-0_879"><path d="M67.08 121.28L197.08 121.28L197.08 61.28L67.08 61.28L67.08 121.28Z" fill="white"/></clipPath></defs></svg>