<svg xmlns="http://www.w3.org/2000/svg" xmlns:xlink="http://www.w3.org/1999/xlink" width="67.0015869140625" height="64.00271606445312" viewBox="0 0 67.0015869140625 64.00271606445312" fill="none"><g opacity="0.1"><path d="M53.6635 61.6297L20.1712 61.6297C19.1378 61.6297 18.2893 60.7562 18.2893 59.6921L18.2893 22.4245C18.2893 21.3604 19.1378 20.4869 20.1712 20.4869L53.6635 20.4869C54.6969 20.4869 55.5454 21.3604 55.5454 22.4245L55.5454 59.6987C55.5454 60.7627 54.6969 61.6297 53.6635 61.6297Z"   fill="#4837FF" ></path></g><path d="M4.53847 20.3785C4.53847 21.6315 3.5225 22.6472 2.26923 22.6472C1.01597 22.6472 0 21.6315 0 20.3785C0 19.1255 1.01597 18.1097 2.26923 18.1097C3.5225 18.1097 4.53847 19.1255 4.53847 20.3785Z"   fill="#4837FF" ></path><path d="M14.9024 2.26878C14.9024 3.5218 13.8864 4.53757 12.6331 4.53757C11.3799 4.53757 10.3639 3.5218 10.3639 2.26878C10.3639 1.01577 11.3799 0 12.6331 0C13.8864 0 14.9024 1.01577 14.9024 2.26878Z"   fill="#FF4C87" ></path><path d="M67 12.3801C67 13.6331 65.984 14.6489 64.7308 14.6489C63.4775 14.6489 62.4615 13.6331 62.4615 12.3801C62.4615 11.1271 63.4775 10.1113 64.7308 10.1113C65.984 10.1113 67 11.1271 67 12.3801Z"   fill="#4837FF" ></path><path d="M17.055 64.0027L49.735 64.0027C53.9686 64.0027 57.415 60.5555 57.415 56.3227L57.415 17.2727C57.415 13.0399 53.9686 9.59272 49.735 9.59272L45.675 9.59272C44.957 7.2359 42.7658 5.51273 40.185 5.51273L26.605 5.51273C24.0174 5.51273 21.833 7.2359 21.115 9.59272L17.055 9.59272C12.8214 9.59272 9.375 13.0399 9.375 17.2727L9.375 56.3227C9.375 60.5555 12.8214 64.0027 17.055 64.0027ZM23.8034 11.2588C23.8034 12.8097 25.0522 14.0688 26.6034 14.0688L40.1834 14.0688C41.7278 14.0688 42.9834 12.8097 42.9834 11.2588C42.9834 9.70793 41.7346 8.45883 40.1834 8.45883L26.6034 8.45883C25.0522 8.45883 23.8034 9.70793 23.8034 11.2588ZM49.7333 60.7473L17.0533 60.7473C14.6147 60.7473 12.6333 58.7654 12.6333 56.3273L12.6333 17.2673C12.6333 14.8292 14.6147 12.8473 17.0533 12.8473L21.0933 12.8473C21.7842 15.2448 23.9886 16.9973 26.6033 16.9973L40.1833 16.9973C42.798 16.9973 45.0024 15.238 45.6933 12.8473L49.7333 12.8473C52.1719 12.8473 54.1533 14.8292 54.1533 17.2673L54.1533 56.3273C54.1533 58.7654 52.1719 60.7473 49.7333 60.7473Z" fill-rule="evenodd"  fill="#4837FF" ></path><path d="M20.0913 28.5187C20.0913 27.5773 20.863 26.7987 21.8113 26.7987L48.3013 26.7987C49.2496 26.7987 50.0213 27.5706 50.0213 28.5187C50.0213 29.4601 49.2496 30.2387 48.3013 30.2387L21.8113 30.2387C20.8697 30.2387 20.0913 29.4669 20.0913 28.5187ZM29.0327 38.1899C29.0327 37.2485 29.8044 36.4699 30.7527 36.4699L48.3027 36.4699C49.251 36.4699 50.0327 37.2485 50.0327 38.1899C50.0327 39.1313 49.261 39.9099 48.3127 39.9099L30.7527 39.9099C29.8111 39.9099 29.0327 39.1313 29.0327 38.1899Z" fill-rule="evenodd"  fill="#FF4C87" ></path></svg>