<svg xmlns="http://www.w3.org/2000/svg" xmlns:xlink="http://www.w3.org/1999/xlink" width="64.00439453125" height="64.0040283203125" viewBox="0 0 64.00439453125 64.0040283203125" fill="none"><g opacity="0.1"><path d="M59.5 61.9957L18.3571 61.9957C17.2 61.9957 16.25 61.0505 16.25 59.8991L16.25 37.8456C16.25 36.6942 17.2 35.749 18.3571 35.749L59.5 35.749C60.6571 35.749 61.6071 36.6942 61.6071 37.8456L61.6071 59.8991C61.6071 61.0505 60.6571 61.9957 59.5 61.9957Z"   fill="#4837FF" ></path></g><path d="M4.78571 18.0877C4.78571 19.4026 3.7144 20.4686 2.39286 20.4686C1.07132 20.4686 0 19.4026 0 18.0877C0 16.7728 1.07132 15.7068 2.39286 15.7068C3.7144 15.7068 4.78571 16.7728 4.78571 18.0877Z"   fill="#4837FF" ></path><path d="M24.4143 2.3809C24.4143 3.69583 23.3429 4.7618 22.0214 4.7618C20.6999 4.7618 19.6285 3.69583 19.6285 2.3809C19.6285 1.06597 20.6999 0 22.0214 0C23.3429 0 24.4143 1.06597 24.4143 2.3809Z"   fill="#FF4C87" ></path><path d="M64.0001 10.6536C64.0001 11.9685 62.9288 13.0345 61.6072 13.0345C60.2857 13.0345 59.2144 11.9685 59.2144 10.6536C59.2144 9.33867 60.2857 8.27271 61.6072 8.27271C62.9288 8.27271 64.0001 9.33867 64.0001 10.6536Z"   fill="#4837FF" ></path><path d="M57.4428 23.3115L17.7643 23.3115C15.4714 23.3115 13.6 25.2233 13.6 27.5687L13.6 30.8948L61.6071 30.8948L61.6071 27.5687C61.6071 25.2233 59.7357 23.3115 57.4428 23.3115Z"   fill="#FF4C87" ></path><path d="M8.34277 26.304C8.34277 22.0681 11.7099 18.624 15.8528 18.624L22.2028 18.624C22.1885 18.5174 22.1828 18.4106 22.1828 18.304L22.1828 14.864C22.1828 13.7695 23.0542 12.864 24.1328 12.864C25.2042 12.864 26.0828 13.7624 26.0828 14.864L26.0828 18.304C26.0828 18.4177 26.0742 18.5174 26.0528 18.624L45.3528 18.624C45.3385 18.5174 45.3228 18.4106 45.3228 18.304L45.3228 14.864C45.3228 13.7695 46.1942 12.864 47.2728 12.864C48.3442 12.864 49.2228 13.7624 49.2228 14.864L49.2228 18.304C49.2228 18.4177 49.2142 18.5174 49.1928 18.624L55.5428 18.624C59.6856 18.624 63.0528 22.0681 63.0528 26.304L63.0528 56.314C63.0528 60.5499 59.6756 64.004 55.5328 64.004L15.8528 64.004C11.7099 64.004 8.34277 60.557 8.34277 56.314L8.34277 26.304ZM11.6929 32.9772L59.7029 32.9772L59.7029 56.3172C59.7029 58.6626 57.8329 60.5772 55.5329 60.5772L15.8529 60.5772C13.56 60.5772 11.6929 58.6626 11.6929 56.3172L11.6929 32.9772Z" fill-rule="evenodd"  fill="#4837FF" ></path><path d="M59.6999 29.6297L11.7 29.6297L11.7 26.3036C11.7 23.9582 13.5642 22.0464 15.8642 22.0464L55.5428 22.0464C57.8357 22.0464 59.7071 23.9582 59.7071 26.3036L59.7071 29.6297L59.6999 29.6297Z"   fill="#FFFFFF" ></path><path     fill="#FF4C87"  d="M27.0189 42.3916C26.4689 42.9602 26.4689 43.8801 27.0189 44.4416L33.0989 50.6716C33.3703 50.9488 33.7203 51.1016 34.0989 51.1016C34.3489 51.1016 34.5918 51.0395 34.7989 50.9116C34.9275 50.8477 35.0418 50.7482 35.1489 50.6416L46.4089 39.1316C46.9589 38.563 46.9589 37.6431 46.4089 37.0816C46.1375 36.8115 45.7875 36.6516 45.4089 36.6516C45.0303 36.6516 44.6732 36.8044 44.4089 37.0816L34.1189 47.6016L29.0189 42.3916C28.7475 42.1144 28.3975 41.9616 28.0189 41.9616C27.6403 41.9616 27.2832 42.1144 27.0189 42.3916"></path></svg>