<svg xmlns="http://www.w3.org/2000/svg" xmlns:xlink="http://www.w3.org/1999/xlink" width="35" height="35" viewBox="0 0 35 35" fill="none"><path   fill-rule="evenodd"  fill="#AFAFAF"  d="M17.5 0C27.1653 0 35 7.83475 35 17.5C35 27.1653 27.1653 35 17.5 35C7.83475 35 0 27.1653 0 17.5C0 7.83475 7.83475 0 17.5 0ZM17.5 3.5C25.2319 3.5 31.5 9.76808 31.5 17.5C31.5 25.2319 25.2319 31.5 17.5 31.5C9.76808 31.5 3.5 25.2319 3.5 17.5C3.5 9.76808 9.76808 3.5 17.5 3.5Z"></path><path d="M12.95 12C10.2162 12 8 14.1521 8 16.8068C8 21.6136 13.85 25.9835 17 27C20.15 25.9835 26 21.6136 26 16.8068C26 14.1521 23.7838 12 21.05 12C19.3759 12 17.8958 12.8071 17 14.0424C16.1042 12.8071 14.6241 12 12.95 12Z" stroke="rgba(175, 175, 175, 1)" stroke-width="2" stroke-linejoin="round" stroke-linecap="round" ></path></svg>