<svg xmlns="http://www.w3.org/2000/svg" xmlns:xlink="http://www.w3.org/1999/xlink" width="35.000003814697266" height="35" viewBox="0 0 35.000003814697266 35" fill="none"><path   fill-rule="evenodd"  fill="#808080"  d="M17.5 0C27.1653 0 35 7.83475 35 17.5C35 27.1653 27.1653 35 17.5 35C7.83475 35 0 27.1653 0 17.5C0 7.83475 7.83475 0 17.5 0ZM17.5 3.5C25.2319 3.5 31.5 9.76808 31.5 17.5C31.5 25.2319 25.2319 31.5 17.5 31.5C9.76808 31.5 3.5 25.2319 3.5 17.5C3.5 9.76808 9.76808 3.5 17.5 3.5Z"></path><path d="M13.7925 12C11.2175 12 9.13 14.1521 9.13 16.8068C9.13 21.6136 14.6402 25.9835 17.6073 27C20.5743 25.9835 26.0845 21.6136 26.0845 16.8068C26.0845 14.1521 23.9971 12 21.422 12C19.8451 12 18.4511 12.8071 17.6073 14.0424C16.7635 12.8071 15.3694 12 13.7925 12Z" stroke="rgba(128, 128, 128, 1)" stroke-width="2" stroke-linejoin="round" stroke-linecap="round" ></path></svg>