<svg xmlns="http://www.w3.org/2000/svg" xmlns:xlink="http://www.w3.org/1999/xlink" width="64" height="64" viewBox="0 0 64 64" fill="none"><path d="M64 13.2829C64 14.5929 62.9455 15.6549 61.6447 15.6549C60.3439 15.6549 59.2894 14.5929 59.2894 13.2829C59.2894 11.9729 60.3439 10.911 61.6447 10.911C62.9455 10.911 64 11.9729 64 13.2829Z"   fill="#4837FF" ></path><path d="M4.71054 14.2317C4.71054 15.5416 3.65605 16.6036 2.35527 16.6036C1.05449 16.6036 0 15.5416 0 14.2317C0 12.9217 1.05449 11.8597 2.35527 11.8597C3.65605 11.8597 4.71054 12.9217 4.71054 14.2317Z"   fill="#4837FF" ></path><path d="M28.193 2.37194C28.193 3.68193 27.1385 4.74389 25.8377 4.74389C24.5369 4.74389 23.4824 3.68193 23.4824 2.37194C23.4824 1.06196 24.5369 0 25.8377 0C27.1385 0 28.193 1.06196 28.193 2.37194Z"   fill="#FF4C87" ></path><g opacity="0.1"><path d="M49.9879 62.9663L22.2169 62.9663C21.0568 62.9663 20.0585 62.2299 19.8264 61.2032L13.1754 31.2389C12.8731 29.8794 14.0262 28.612 15.5659 28.612L56.6319 28.612C58.1716 28.612 59.3176 29.8794 59.0223 31.2389L52.3713 61.2032C52.1463 62.2299 51.148 62.9663 49.9879 62.9663Z"   fill="#4837FF" ></path></g><path d="M50.167 63.9972L14.797 63.9972C12.491 63.9972 10.5492 62.6314 10.057 60.6772L1.57704 27.0072C1.28878 25.8673 1.55179 24.6731 2.29704 23.7172C3.19696 22.549 4.70296 21.8572 6.32704 21.8572L58.627 21.8572C60.2511 21.8572 61.7571 22.549 62.657 23.7172C63.3953 24.6731 63.6583 25.8744 63.377 27.0072L54.907 60.6772C54.4149 62.6314 52.4731 63.9972 50.167 63.9972ZM4.99214 26.1375C4.97808 26.1021 4.96668 26.0391 5.07214 25.8975C5.24791 25.671 5.68532 25.3975 6.33214 25.3975L58.6321 25.3975C59.279 25.3975 59.7164 25.671 59.8921 25.8975C59.9828 26.0131 59.9767 26.0811 59.9732 26.1205C59.9726 26.1269 59.9721 26.1326 59.9721 26.1375L51.4921 59.8175C51.4289 60.0795 50.9114 60.4575 50.1521 60.4575L14.7921 60.4575C14.0399 60.4575 13.5154 60.0795 13.4521 59.8175L4.99214 26.1375Z" fill-rule="evenodd"  fill="#4837FF" ></path><path d="M24.2557 31.7203L40.6863 31.7203C41.8183 31.7203 42.7393 32.6478 42.7393 33.7878C42.7393 34.9277 41.8183 35.8553 40.6863 35.8553L24.2557 35.8553C23.1238 35.8553 22.2028 34.9277 22.2028 33.7878C22.2028 32.6408 23.1167 31.7203 24.2557 31.7203Z"   fill="#FF4C87" ></path><path d="M53.4399 25.3975C52.6454 25.3975 51.9213 24.8523 51.7315 24.038L50.2058 17.5736C50.0863 17.0709 49.552 16.7098 48.9333 16.7098L33.0229 16.7098C32.2847 16.7098 31.5394 16.5399 30.8786 16.2283L24.7619 13.3112C24.565 13.2191 24.3471 13.1696 24.1221 13.1696L17.1477 13.1696C16.5149 13.1696 15.9666 13.559 15.8681 14.0759L14.0402 23.9531C13.8644 24.916 12.9434 25.5462 11.9872 25.3692C11.031 25.1922 10.4053 24.2646 10.5811 23.3017L12.409 13.4245C12.8168 11.2225 14.8065 9.62936 17.1477 9.62936L24.1221 9.62936C24.8603 9.62936 25.6056 9.79929 26.2664 10.1108L32.3831 13.028C32.58 13.12 32.7979 13.1696 33.0229 13.1696L48.9333 13.1696C51.1971 13.1696 53.1235 14.6423 53.6227 16.7523L55.1483 23.2167C55.3733 24.1655 54.7898 25.1213 53.8477 25.3479C53.7071 25.3833 53.5735 25.3975 53.4399 25.3975Z"   fill="#4837FF" ></path></svg>