<svg xmlns="http://www.w3.org/2000/svg" xmlns:xlink="http://www.w3.org/1999/xlink" width="30" height="24" viewBox="0 0 30 24" fill="none"><path    style="mix-blend-mode:normal" fill="#FFEB3B"  d="M12.833 0L12.833 0C13.439 3.212 17.399 4.448 19.791 2.22L19.791 2.22L19.791 2.22C19.107 4.941 21.635 7.377 24.328 6.592L24.994 6.398L24.994 6.398C22.942 8.709 24.178 12.376 27.211 12.973L28 13.128L27.629 13.174C24.405 13.574 23.224 17.638 25.733 19.703L25.733 19.703L24.747 19.32C20.981 17.855 16.791 20.065 15.872 24L15.872 24L15.872 24C14.387 20.18 9.574 18.971 6.46 21.635L5.874 22.136L6.097 21.639C7.473 18.564 4.906 15.182 1.573 15.681L1.573 15.681L1.573 15.681C4.077 13.808 3.317 9.872 0.296 9.065L0 8.986L1.828 8.73C4.912 8.297 6.851 5.177 5.874 2.22L5.874 2.22L5.978 2.312C8.387 4.458 12.216 3.167 12.833 0L12.833 0Z"></path><path d="M30 8L26.3435 6.6565L25 3L23.6565 6.6565L20 8L23.6565 9.3435L25 13L26.3435 9.3435L30 8Z"  style="mix-blend-mode:normal" fill="#191800" ></path></svg>