<svg xmlns="http://www.w3.org/2000/svg" xmlns:xlink="http://www.w3.org/1999/xlink" width="44.99988555908203" height="37.00006103515625" viewBox="0 0 44.99988555908203 37.00006103515625" fill="none"><path d="M19.6481 36.4407C15.9395 36.1924 13.4448 35.6337 11.2015 34.5436C9.62615 33.7831 8.15684 32.6464 7.22968 31.4787C6.71503 30.8308 6.1218 29.8298 5.7918 29.0655L5.68572 28.8211L5.45393 28.8211C5.04928 28.8211 4.43641 28.7435 4.04355 28.6427C2.33066 28.2043 1.10885 27.0404 0.672774 25.4304C0.617773 25.2403 0.554915 25.0696 0.531343 25.054C0.499914 25.0346 0.492057 24.8096 0.507771 24.2393C0.531343 23.3625 0.582416 23.0522 0.822063 22.4275C1.34064 21.058 2.64495 20.0338 4.14569 19.8204C4.43641 19.7778 5.34 19.7816 5.52072 19.8243C5.56393 19.836 5.63072 19.7002 5.76037 19.3355C6.72681 16.6624 8.44756 14.3851 10.848 12.6044C11.398 12.197 12.0737 11.7547 12.5766 11.4715C13.5666 10.9206 14.8512 10.3581 15.8177 10.0516C16.8824 9.71795 17.177 9.64036 18.2535 9.40758C19.1649 9.20972 20.9839 9.00022 21.7932 8.99634L21.9346 8.99634L21.9621 7.9566C21.9778 7.3863 21.9974 6.83928 22.0092 6.74229L22.0328 6.56383L21.6242 6.54055C20.2846 6.45908 18.9252 5.8655 18.0177 4.96543C17.4009 4.35245 16.9845 3.64636 16.792 2.87044C16.6663 2.38549 16.6663 1.4505 16.7841 1.19833C17.0434 0.651305 17.4324 0.5 18.5913 0.5C18.9685 0.5 19.2749 0.511639 19.2749 0.531037C19.2749 0.546555 19.3928 0.581472 19.5342 0.608629C20.5321 0.79485 21.7185 1.56689 22.3589 2.4398C22.6771 2.8782 23.0464 3.66576 23.0464 3.9063C23.0464 3.93733 23.1918 3.81318 23.3685 3.62696C23.9696 2.99071 24.8261 2.49412 25.6982 2.28074C26.1618 2.16435 27.1243 2.13719 27.5604 2.22255C28.5072 2.41265 28.8333 2.72302 28.8294 3.4291C28.8215 4.29814 28.4011 5.18657 27.6547 5.89653C27.254 6.27674 27.0772 6.40476 26.6411 6.62202C25.8947 6.99058 24.9518 7.20008 24.1975 7.16129C23.9578 7.14577 23.6121 7.11473 23.4314 7.09145C23.2468 7.0643 23.07 7.05266 23.0346 7.06818C22.9757 7.09145 22.9678 7.18844 22.9678 8.04196L22.9678 8.98858L23.4903 9.01186C27.6036 9.21748 31.2494 10.4396 34.1645 12.6005C36.5845 14.389 38.3288 16.7051 39.2717 19.3859C39.4249 19.8204 39.4485 19.8631 39.5231 19.8398C39.7117 19.7855 40.4896 19.7739 40.8039 19.8166C42.7368 20.0959 44.0686 21.38 44.4339 23.3082C44.5164 23.7466 44.5243 25.1937 44.4418 25.2247C44.4143 25.2364 44.375 25.314 44.3593 25.3954C44.32 25.6205 44.0843 26.1946 43.9232 26.4662C43.4675 27.2344 42.7603 27.9094 42.0375 28.2702C41.3382 28.6194 40.7017 28.7785 39.861 28.8173C39.3503 28.8405 39.3306 28.8444 39.2835 28.9375C39.256 28.9918 39.1303 29.2556 39.0006 29.5272C38.5213 30.5437 37.9635 31.3351 37.1227 32.1964C36.3684 32.9684 35.5709 33.5892 34.6752 34.1013C34.4316 34.2409 33.5909 34.6561 33.0841 34.8927C32.6087 35.11 31.4183 35.5018 30.5108 35.7307C29.4108 36.01 26.6215 36.4252 25.8475 36.4252C25.6707 36.4252 25.5136 36.4446 25.5018 36.464C25.4664 36.5222 20.5753 36.5066 19.6481 36.4407ZM25.05 35.4591C26.7236 35.335 28.574 35.1177 29.0572 34.9897C29.1829 34.9548 29.4658 34.9005 30.0394 34.7918C30.1572 34.7686 30.4244 34.7026 30.6287 34.6405C30.833 34.5823 31.1983 34.4737 31.434 34.4039C31.6737 34.3341 31.9919 34.2254 32.1412 34.1634C32.2944 34.1013 32.4948 34.0198 32.593 33.981C32.9662 33.8336 33.4494 33.6047 33.7205 33.4456C33.8737 33.3564 34.0152 33.2827 34.027 33.2827C34.0427 33.2827 34.1016 33.2478 34.1566 33.209C34.2155 33.1702 34.357 33.0848 34.4709 33.0227C35.0602 32.7007 36.2152 31.6959 36.8438 30.9549C37.7513 29.8919 38.4545 28.4487 38.7767 26.9977C38.9928 26.0162 39.0478 25.5002 39.0517 24.4178C39.0556 23.3548 39.0203 22.9086 38.8553 21.9542C38.2149 18.2259 36.1484 15.1222 32.8523 12.9419C30.5265 11.4017 27.9926 10.5133 24.8536 10.1331C24.3861 10.0749 23.9893 10.0632 22.6339 10.0671C20.646 10.071 19.9624 10.1253 18.4302 10.4163C16.3127 10.8198 14.1127 11.6771 12.4391 12.7518C9.13114 14.8739 6.97825 17.9078 6.23573 21.4926C6.01966 22.5323 5.97644 22.9901 5.97644 24.3208C5.98037 25.4265 5.98823 25.6476 6.0668 26.1248C6.25145 27.2926 6.53824 28.2237 6.99789 29.1509C7.85433 30.8928 9.22936 32.2895 11.1308 33.3525C13.378 34.6173 16.4698 35.3001 20.7874 35.4941C21.7224 35.5329 24.3311 35.5135 25.05 35.4591ZM5.34 27.8241C5.35179 27.8047 5.32429 27.6611 5.285 27.5021C5.04928 26.5865 4.94321 25.795 4.90785 24.7669C4.87249 23.6225 4.99035 22.2918 5.22607 21.2093L5.31643 20.7942L5.065 20.7671C4.59749 20.7205 3.78426 20.8718 3.34425 21.0891C2.7471 21.3878 2.1853 21.9465 1.8828 22.5556C1.61172 23.091 1.47422 23.9367 1.55672 24.573C1.61958 25.0773 1.69422 25.3372 1.90637 25.7756C2.45638 26.9162 3.56033 27.6456 4.97464 27.8086C5.13571 27.828 5.28107 27.8435 5.29679 27.8474C5.3125 27.8474 5.33214 27.8396 5.34 27.8241ZM40.1124 27.793C40.7449 27.731 41.566 27.4206 42.0453 27.0637C42.7721 26.5205 43.2514 25.7562 43.4203 24.8795C43.4989 24.4682 43.4753 23.6729 43.3771 23.2772C43.2121 22.6176 42.9528 22.1676 42.4578 21.6827C42.1514 21.38 42.0139 21.2792 41.7232 21.1318C41.2282 20.8835 40.741 20.7748 40.2067 20.7981C39.9828 20.8059 39.7824 20.8214 39.7628 20.8369C39.7313 20.8563 39.7549 21.0348 39.8256 21.3839C39.9513 21.9969 40.0378 22.7302 40.0967 23.6496C40.1753 24.8213 40.0339 26.311 39.7392 27.4749C39.696 27.6417 39.6724 27.793 39.6842 27.8124C39.6999 27.8357 39.7471 27.8435 39.7942 27.8357C39.8413 27.8241 39.9828 27.8086 40.1124 27.793ZM25.3407 6.04784C26.7315 5.67152 27.6193 4.74817 27.8197 3.46402L27.8433 3.30108L27.5604 3.23512C27.3286 3.17693 27.1675 3.16917 26.645 3.18469C26.0675 3.20409 25.9811 3.21573 25.6393 3.32823C25.0421 3.52609 24.7357 3.72007 24.2446 4.20502C23.7732 4.67058 23.4943 5.07794 23.286 5.6172C23.1053 6.08275 23.0935 6.05948 23.4589 6.10991C23.9539 6.18362 24.9636 6.15259 25.3407 6.04784ZM22.2253 5.47754C22.3903 5.05078 22.1232 3.96061 21.6792 3.25452C21.4592 2.90536 20.9956 2.41652 20.6656 2.18375C20.3278 1.94321 19.7463 1.6794 19.3535 1.58629C18.9724 1.49706 17.9195 1.47378 17.7742 1.55137C17.6956 1.59405 17.6956 1.61732 17.7192 1.98201C17.7702 2.71914 17.9942 3.34375 18.387 3.86362C18.607 4.15071 19.0392 4.55419 19.3456 4.75593C20.0803 5.237 21.0781 5.54737 21.9778 5.57453C22.1703 5.58229 22.186 5.57453 22.2253 5.47754Z" stroke="rgba(128, 128, 128, 1)" stroke-width="1"      fill="#808080" ></path><path d="M21.0821 33.4885C18.3556 33.345 16.517 33.0269 14.9848 32.4255C12.5058 31.4556 10.734 29.7913 9.89721 27.642C9.72042 27.1881 9.51613 26.3966 9.4297 25.8341C9.33148 25.2056 9.33148 23.8943 9.4297 23.2541C9.63792 21.9118 10.0819 20.7518 10.8008 19.6694C12.333 17.361 14.8709 15.7199 18.1513 14.9168C19.8878 14.4901 21.9071 14.3116 23.6357 14.428C28.3461 14.7539 32.1688 16.6278 34.1803 19.5995C34.8401 20.5772 35.3508 21.8691 35.5632 23.0796C35.6614 23.6576 35.681 25.0388 35.6022 25.6711C35.2526 28.3752 33.7794 30.478 31.2729 31.863C29.2026 33.0036 26.4447 33.5273 22.6378 33.5079C21.8992 33.5041 21.1999 33.4963 21.0821 33.4885ZM25.0579 32.4139C26.4525 32.2975 27.2972 32.1656 28.3108 31.9134C29.2654 31.6768 30.4833 31.1724 31.2179 30.703C33.2608 29.4072 34.3804 27.5838 34.5967 25.1901C34.7224 23.8594 34.4079 22.2377 33.7953 21.0234C33.0879 19.6189 31.87 18.3387 30.3576 17.4153C28.4915 16.2747 25.8082 15.5182 23.3607 15.4522C21.7028 15.4057 20.0528 15.5337 18.8231 15.8053C17.2477 16.1544 15.6409 16.7829 14.5448 17.4813C13.048 18.4318 11.8497 19.7314 11.1583 21.1553C10.1526 23.2231 10.1369 25.7798 11.1229 27.801C11.8419 29.283 13.2208 30.5478 14.9455 31.3043C16.3755 31.9367 18.0531 32.282 20.3553 32.4294C20.7246 32.4527 21.1214 32.476 21.2392 32.4837C21.746 32.5186 24.4136 32.4682 25.0579 32.4139Z" stroke="rgba(128, 128, 128, 1)" stroke-width="1"      fill="#808080" ></path><path d="M22.1428 27.4399C21.3139 27.2809 20.5517 26.6756 20.3749 26.0355C20.2885 25.7096 20.4692 25.4458 20.7874 25.4458C21.0035 25.4458 21.1332 25.5467 21.2589 25.8144C21.3807 26.0665 21.6439 26.311 21.9385 26.4467C22.1271 26.536 22.2175 26.5515 22.516 26.5515C22.8146 26.5515 22.905 26.536 23.0896 26.4467C23.4 26.3071 23.62 26.0937 23.7771 25.7872C23.9579 25.4303 24.1582 25.3294 24.4214 25.4652C24.6886 25.601 24.7318 25.892 24.5432 26.2799C24.225 26.9433 23.4314 27.4205 22.5946 27.4477C22.4021 27.4516 22.1978 27.4477 22.1428 27.4399Z" stroke="rgba(128, 128, 128, 1)" stroke-width="1"      fill="#808080" ></path><path d="M16.8981 25.0426C16.3677 24.8719 15.9827 24.4646 15.8374 23.9137C15.7195 23.4598 15.7784 22.839 15.9788 22.4511C16.1163 22.1834 16.4581 21.8614 16.7292 21.7411C17.5424 21.3803 18.4342 21.7799 18.7524 22.645C19.0864 23.549 18.7288 24.5693 17.9431 24.9534C17.727 25.0582 17.6367 25.0776 17.3695 25.0853C17.1888 25.0931 16.9885 25.0737 16.8981 25.0426Z" stroke="rgba(128, 128, 128, 1)" stroke-width="1"      fill="#808080" ></path><path d="M27.2854 25.0421C26.9947 24.9296 26.8297 24.8248 26.6372 24.6231C26.2993 24.27 26.1501 23.8821 26.1501 23.3506C26.1501 22.6212 26.4997 22.0237 27.0929 21.7444C27.3208 21.6358 27.3876 21.6241 27.7019 21.6241C27.9965 21.628 28.0908 21.6435 28.2755 21.725C28.5505 21.853 28.739 22.016 28.9198 22.2837C29.5366 23.2031 29.2419 24.4989 28.3147 24.9528C28.0987 25.0576 28.0083 25.077 27.7412 25.0848C27.5487 25.0925 27.3719 25.0731 27.2854 25.0421Z" stroke="rgba(128, 128, 128, 1)" stroke-width="1"      fill="#808080" ></path></svg>