<svg xmlns="http://www.w3.org/2000/svg" xmlns:xlink="http://www.w3.org/1999/xlink" width="40" height="40" viewBox="0 0 40 40" fill="none"><path    style="mix-blend-mode:normal" fill="#B3D6FF"  d="M0 28L0 12C0 5.37258 5.37258 0 12 0L28 0C34.6274 0 40 5.37258 40 12L40 28C40 34.6274 34.6274 40 28 40L12 40C5.37258 40 0 34.6274 0 28Z"></path><path d="M26.5589 14.3351C26.193 14.0065 25.6804 13.9116 25.2203 14.0859L11.8493 19.1724C11.352 19.3621 11.0255 19.8121 11.0014 20.3481C10.9773 20.8841 11.2578 21.3628 11.7376 21.5988L13.8255 22.6267C13.8671 22.6465 13.9044 22.6752 13.9372 22.7061C14.1541 23.2686 15.0108 25.4722 15.392 26.2685C15.5848 26.6743 15.9397 26.9589 16.2683 27.0824C16.2464 27.0802 16.2223 27.0758 16.196 27.0714C16.2596 27.0956 16.3253 27.1155 16.3932 27.1287C16.827 27.2169 17.2717 27.0824 17.5829 26.767L18.3606 25.9839C18.4986 25.8449 18.7155 25.8141 18.8864 25.9111L22.2363 27.8257C22.4379 27.9404 22.6613 28 22.8848 28C23.0601 28 23.2375 27.9647 23.404 27.8919C23.7852 27.7265 24.0613 27.4 24.1621 26.9942L26.9598 15.6387C27.0803 15.1623 26.9248 14.6616 26.5589 14.3351ZM14.7698 22.4348L21.9383 18.3055L17.8918 22.4789C17.826 22.5473 17.7778 22.6245 17.745 22.7149C17.7428 22.7193 17.7428 22.7215 17.7406 22.726C17.7318 22.7524 16.9322 25.1281 16.4589 26.2023C16.3625 26.1383 16.2464 26.0346 16.1785 25.8913C15.828 25.1501 15.0108 23.0524 14.7698 22.4348Z"  style="mix-blend-mode:normal" fill="#000000" ></path></svg>